<svg width="58" height="47" viewBox="0 0 58 47" fill="none" xmlns="http://www.w3.org/2000/svg">
<path d="M31.4883 43.6558C35.2283 41.125 37.792 38.4135 39.1794 35.5212C40.5668 32.6891 41.2605 29.9776 41.2605 27.3865C41.2605 24.6147 40.5065 22.1442 38.9984 19.975C37.4301 17.866 35.7109 16.0282 33.8409 14.4615C32.9964 13.5577 32.5741 12.5635 32.5741 11.4788C32.5741 10.2135 32.9964 8.91795 33.8409 7.59231C34.6854 6.26667 35.8014 5.03141 37.1888 3.88654C38.5762 2.74167 40.2049 1.8077 42.0749 1.08462C43.8846 0.361541 45.7847 2.7468e-06 47.7754 2.92083e-06C49.7057 3.08958e-06 51.3344 0.482055 52.6615 1.44616C53.9282 2.41026 54.9537 3.58526 55.7379 4.97116C56.5221 6.35706 57.0952 7.80321 57.4571 9.30962C57.819 10.8763 58 12.2622 58 13.4673C58 16.9622 57.3666 20.3064 56.0998 23.5C54.8331 26.7538 53.1139 29.7968 50.9423 32.6288C48.7707 35.4609 46.2371 38.0519 43.3417 40.4019C40.4462 42.8122 37.3999 44.9513 34.2028 46.8192L31.4883 43.6558ZM-3.53814e-06 43.8365C3.67967 41.3058 6.24337 38.5942 7.69111 35.7019C9.07852 32.8699 9.77223 30.1583 9.77223 27.5673C9.77223 24.7955 9.0182 22.325 7.51014 20.1558C5.94176 18.0468 4.22257 16.209 2.35258 14.6423C1.50806 13.7385 1.0858 12.7442 1.0858 11.6596C1.0858 10.3942 1.50806 9.09872 2.35258 7.77308C3.19709 6.44744 4.31305 5.21218 5.70047 4.06731C7.08789 2.92244 8.71659 1.98846 10.5866 1.26538C12.3963 0.542309 14.2964 0.180771 16.2871 0.180771C18.2174 0.180771 19.8159 0.662823 21.0827 1.62692C22.3495 2.59103 23.4051 3.76603 24.2496 5.15192C25.0338 6.53782 25.6069 7.98398 25.9688 9.49038C26.2704 11.0571 26.4212 12.4429 26.4212 13.6481C26.4212 17.1429 25.7878 20.4872 24.5211 23.6808C23.2543 26.9346 21.5351 29.9776 19.3635 32.8096C17.1919 35.6417 14.6885 38.2327 11.8534 40.5827C8.95788 42.9929 5.91159 45.132 2.71451 47L-3.53814e-06 43.8365Z" fill="#ECEAEA"/>
</svg>
